<svg width="48" height="40" viewBox="0 0 48 40" fill="none" xmlns="http://www.w3.org/2000/svg">
<path d="M15.1003 39.5007C33.2091 39.5007 43.1166 24.4941 43.1166 11.4845C43.1166 11.0626 43.1072 10.6313 43.0884 10.2095C45.0158 8.81565 46.679 7.08924 48 5.11133C46.205 5.90993 44.2993 6.4315 42.3478 6.6582C44.4026 5.42655 45.9411 3.49168 46.6781 1.21227C44.7451 2.35785 42.6312 3.16596 40.4269 3.60195C38.9417 2.02385 36.978 0.978965 34.8394 0.628834C32.7008 0.278704 30.5064 0.642833 28.5955 1.66493C26.6846 2.68702 25.1636 4.31014 24.2677 6.28336C23.3718 8.25657 23.1509 10.47 23.6391 12.5813C19.725 12.3849 15.8959 11.3681 12.4 9.59693C8.90405 7.82572 5.81939 5.33961 3.34594 2.29977C2.0888 4.46722 1.70411 7.03202 2.27006 9.47291C2.83601 11.9138 4.31013 14.0476 6.39281 15.4407C4.82926 15.3911 3.29995 14.9701 1.93125 14.2126V14.3345C1.92985 16.609 2.7162 18.8139 4.15662 20.5743C5.59704 22.3346 7.60265 23.5419 9.8325 23.9907C8.38411 24.387 6.86396 24.4447 5.38969 24.1595C6.01891 26.1156 7.24315 27.8265 8.89154 29.0534C10.5399 30.2803 12.5302 30.9619 14.5847 31.0032C11.0968 33.743 6.78835 35.229 2.35313 35.222C1.56657 35.2208 0.780798 35.1725 0 35.0776C4.50571 37.9682 9.74706 39.5035 15.1003 39.5007Z" fill="#D9D9D9"/>
</svg>
