<?xml version="1.0" encoding="utf-8"?>
<svg viewBox="0 0 48 48" width="48px" height="48px" fill="none" xmlns="http://www.w3.org/2000/svg">
  <path d="M 15.1 43.501 C 33.209 43.501 43.117 28.495 43.117 15.485 C 43.117 15.063 43.107 14.632 43.088 14.21 C 45.016 12.816 46.679 11.09 48 9.112 C 46.205 9.911 44.299 10.432 42.348 10.659 C 44.403 9.427 45.941 7.492 46.678 5.213 C 44.745 6.359 42.631 7.167 40.427 7.603 C 38.942 6.025 36.978 4.98 34.839 4.63 C 32.701 4.279 30.506 4.644 28.596 5.666 C 26.685 6.688 25.164 8.311 24.268 10.284 C 23.372 12.257 23.151 14.471 23.639 16.582 C 19.725 16.386 15.896 15.369 12.4 13.598 C 8.904 11.826 5.819 9.34 3.346 6.301 C 2.089 8.468 1.704 11.033 2.27 13.474 C 2.836 15.915 4.31 18.048 6.393 19.441 C 4.829 19.392 3.3 18.971 1.931 18.213 L 1.931 18.335 C 1.93 20.61 2.716 22.815 4.157 24.575 C 5.597 26.335 7.603 27.543 9.833 27.991 C 8.384 28.388 6.864 28.445 5.39 28.16 C 6.019 30.116 7.243 31.827 8.892 33.054 C 10.54 34.281 12.53 34.963 14.585 35.004 C 11.097 37.744 6.788 39.23 2.353 39.223 C 1.567 39.222 0.781 39.173 0 39.078 C 4.506 41.969 9.747 43.504 15.1 43.501 Z" fill="#D9D9D9" style="transform-origin: 24px 24.0005px;"/>
</svg>